<svg xmlns="http://www.w3.org/2000/svg" viewBox="0 0 40.59 40.59"><defs><style>.cls-1{fill:none;}.cls-2{fill:#b3b3b3;}</style></defs><title>Asset 1</title><g id="Layer_2" data-name="Layer 2"><g id="Layer_1-2" data-name="Layer 1"><path class="cls-1" d="M15.51,2.5A12.89,12.89,0,0,0,2.85,18.38l6.93-6.93,1.77,1.77L3.76,21A12.88,12.88,0,0,0,5.9,24.2L19.29,10.82l1.77,1.77L7.75,25.89a13,13,0,0,0,2.66,1.58l8.32-8.31,1.77,1.77-7.35,7.35A13,13,0,1,0,15.51,2.5Z"/><path class="cls-2" d="M40.59,38.82,27.31,25.54a15.37,15.37,0,0,0,3.71-10,15.57,15.57,0,1,0-5.48,11.8L38.82,40.59ZM15.51,28.51a13.11,13.11,0,0,1-2.36-.23l7.35-7.35-1.77-1.77-8.32,8.31a13,13,0,0,1-2.66-1.58l13.31-13.3-1.77-1.77L5.9,24.2A12.88,12.88,0,0,1,3.76,21l7.79-7.78L9.78,11.45,2.85,18.38A13,13,0,1,1,15.51,28.51Z"/></g></g></svg>