<svg xmlns="http://www.w3.org/2000/svg" viewBox="0 0 144.83 41.85"><defs><style>.cls-1{fill:#474748;}</style></defs><title>P4kLogo_low</title><g id="Layer_1" data-name="Layer 1"><path class="cls-1" d="M72.05,26.68c-.64-1.12-6.17-9.2-6.17-9.2S68.93,16,70.48,15a9.14,9.14,0,0,0,2.77-2.49v-1.9H61.82v2.59c.57,0,2.67.06,2.67,2.16,0,1.74-1.67,2.46-2.92,3.21l-2.81,1.39,0-19.55H57L48.24,2.9V5.42a4.42,4.42,0,0,1,2.27.42c.46.33.59.69.59,1.55v17.4c0,.65,0,1.94-.09,2.46-.17,1.33-1.36,1.79-2.77,1.83v2.39H61.32V29.13a2.46,2.46,0,0,1-2.57-2.71V21.16L65.6,31.58l9.25-.09V29.07A5.23,5.23,0,0,1,72.05,26.68Z" transform="translate(-1.38 -0.38)"/><path class="cls-1" d="M84.87,5h-2c-1.77,4.13-4.76,6.92-8.51,7.34v1.81h3.15l-.17,10.32c0,3,.57,4.74,1.93,6.07a6.38,6.38,0,0,0,4.3,1.58c5.13,0,6.87-2.37,7.69-3.58l-.75-1.35a14.56,14.56,0,0,1-3.4.56c-1.39,0-2.48-1.47-2.43-4.18l.17-9.42H90V11.82H84.87Z" transform="translate(-1.38 -0.38)"/><path class="cls-1" d="M102.37,25.79,102.32.41l-1.9.05L92.23,3v2.3a2.25,2.25,0,0,1,2.14,1,18.07,18.07,0,0,1,.28,4.41V24.3c0,1,0,1.85,0,2.84-.07,1.4-.88,1.82-2.34,1.9v2.48h12.48V29C103.09,29,102.37,28.55,102.37,25.79Z" transform="translate(-1.38 -0.38)"/><path class="cls-1" d="M141.91,10.58c-2.52,1.46-3.29,5-3.65,7.38h-.15l.07-8h-1.93l-8,2.74v2.53c2.38,0,2.8.47,2.84,3.14v6.66c0,3-.55,3.81-2.84,3.94v2.5H143V29c-2.38,0-4.5-.43-4.46-2.93V22.46c0-2.89,1.24-4,2.6-4.46a9,9,0,0,1,5-.12V10A7,7,0,0,0,141.91,10.58Z" transform="translate(-1.38 -0.38)"/><path class="cls-1" d="M124.73,23.82,125,.44h-1.79l-8.57,2.75V5.33c1.9,0,2.42.5,2.6,1.75.08.77.09,2.47.09,3.34h0a7.73,7.73,0,0,0-3.12-.52,10.49,10.49,0,0,0-10.11,10.81c0,7.21,4.9,11.12,8.65,11.12a7.07,7.07,0,0,0,4.37-1.16l.21.85H127V29C125.1,29,124.78,28.26,124.73,23.82Zm-7.42,3.76a2.51,2.51,0,0,1-2.44,2.07c-1.35,0-2.44-1.34-2.44-8.85s1.84-8.44,2.93-8.44,2,1.47,2,2.25v13Z" transform="translate(-1.38 -0.38)"/></g><g id="lowercase"><path class="cls-1" d="M1.52,12.41l8.71-2.5h1.63v1.86c.7-.94,4-1.86,7.15-1.43,4.22.58,7.14,4.32,7.14,10.27,0,6.28-3.51,11.39-9.37,11.39a10.68,10.68,0,0,1-4.59-1.13v4.86c.05,2.2.05,2.76.37,3.19s1.08.56,2.63.6v2.7l-13.81,0V39.57C4,39.43,4,39.29,4,35.68V19.3c0-4.6-.09-4.78-2.48-4.83ZM12.19,28.15a3.77,3.77,0,0,0,2.44,1c3.32,0,3.56-4.74,3.56-6.94,0-5.2-1.59-8.48-3.7-8.48a4.78,4.78,0,0,0-2.3.75Z" transform="translate(-1.38 -0.38)"/><path class="cls-1" d="M47.61,24.16V19.89h-3.7V3.54H42.33L37.23,5l-9.84,14.7v4.44H36.2c0,1,0,1.89-.05,2.88-.09,1.68-1,2-2.9,2.09v2.34H46.92V29.13c-1.79,0-3-.86-3.06-2.13V24.16ZM36.4,19.85H30.08l6.49-9.44Z" transform="translate(-1.38 -0.38)"/></g></svg>