<svg xmlns="http://www.w3.org/2000/svg" viewBox="0 0 42.17 42.17"><defs><style>.cls-1{fill:none;}.cls-2{fill:#d7d8d9;}</style></defs><title>Artboard 3</title><g id="Layer_1" data-name="Layer 1"><path class="cls-1" d="M16.31,3.24a13,13,0,0,0-13,13,12.88,12.88,0,0,0,.34,2.87l6.93-6.93L12.35,14,4.57,21.74a12.62,12.62,0,0,0,2.14,3.2L20.09,11.56l1.77,1.77L8.56,26.63a12.71,12.71,0,0,0,2.66,1.58l8.32-8.31,1.76,1.77L14,29A13,13,0,1,0,16.31,3.24Z"/><path class="cls-2" d="M41.39,39.56,28.11,26.29a15.53,15.53,0,1,0-1.77,1.77L39.62,41.33ZM16.31,29.26A13.11,13.11,0,0,1,14,29l7.35-7.35L19.54,19.9l-8.32,8.31a12.71,12.71,0,0,1-2.66-1.58l13.3-13.3-1.77-1.77L6.71,24.94a12.62,12.62,0,0,1-2.14-3.2L12.35,14l-1.77-1.77L3.65,19.12a12.88,12.88,0,0,1-.34-2.87,13,13,0,1,1,13,13Z"/></g></svg>